PathFileType	4	(X/Y/Z)	C3D_Data\SPM_data\ik.trc
DataRate	CameraRate	NumFrames	NumMarkers	Units	OrigDataRate	OrigDataStartFrame	OrigNumFrames
120.000000	120.000000	4	51	mm	120.000000	82	132
Frame#	Time	Sternum			Neck			RShoulder			LShoulder			Xiphoid			Thoracic			RAsis			LAsis			RPsis			LPsis			Lumbar			RElbow			RWrist			RRadius			RUlna			LElbow			LWrist			LUlna			LRadius			LThighSuperior			LThighInferior			LThighLateral			LPatella			LShankSuperior			LShankInferior			LShankLateral			RThighSuperior			RThighInferior			RThighLateral			RPatella			RShankSuperior			RShankInferior			RShankLateral			RHeel			RToe			RMidfootLateral			RHindfoot			LHeel			LToe			LMidfootMedial			LMidfootLateral			LHindfoot			LMidfootSuperior			LToeMedial			LToeLateral			Oglobal			Sacral			Xglobal			Yglobal			Zglobal			RMidfootSuperior			
		X1	Y1	Z1	X2	Y2	Z2	X3	Y3	Z3	X4	Y4	Z4	X5	Y5	Z5	X6	Y6	Z6	X7	Y7	Z7	X8	Y8	Z8	X9	Y9	Z9	X10	Y10	Z10	X11	Y11	Z11	X12	Y12	Z12	X13	Y13	Z13	X14	Y14	Z14	X15	Y15	Z15	X16	Y16	Z16	X17	Y17	Z17	X18	Y18	Z18	X19	Y19	Z19	X20	Y20	Z20	X21	Y21	Z21	X22	Y22	Z22	X23	Y23	Z23	X24	Y24	Z24	X25	Y25	Z25	X26	Y26	Z26	X27	Y27	Z27	X28	Y28	Z28	X29	Y29	Z29	X30	Y30	Z30	X31	Y31	Z31	X32	Y32	Z32	X33	Y33	Z33	X34	Y34	Z34	X35	Y35	Z35	X36	Y36	Z36	X37	Y37	Z37	X38	Y38	Z38	X39	Y39	Z39	X40	Y40	Z40	X41	Y41	Z41	X42	Y42	Z42	X43	Y43	Z43	X44	Y44	Z44	X45	Y45	Z45	X46	Y46	Z46	X47	Y47	Z47	X48	Y48	Z48	X49	Y49	Z49	X50	Y50	Z50	X51	Y51	Z51	

83	0.6833333333333335	864.6260375976563	1431.0107421875	185.8672637939453	701.6692504882813	1530.096069335938	189.8545989990234	742.8724365234375	1511.285400390625	348.9115600585938	735.7523193359375	1525.342163085938	50.41592407226563	899.2116088867188	1271.952514648438	188.9421691894532	621.8742065429688	1311.204956054688	188.2994079589844	820.1229858398438	1010.213500976563	321.2274780273438	819.01806640625	997.33056640625	47.31485748291019	629.74365234375	1033.441040039063	242.1465911865235	622.9452514648438	1021.9931640625	137.9777221679688	638.2299194335938	1130.001220703125	188.767578125	654.98486328125	1183.739990234375	434.9228515625	717.7811279296874	920.6309204101563	465.7863464355469	741.7327270507813	911.9716796875	418.8244628906251	673.4755249023438	911.2340087890625	461.4355773925781	744.3630981445313	1192.218383789063	-84.77204132080077	921.9740600585938	997.7252197265625	-144.7391815185546	886.5938720703125	970.9275512695313	-129.5076141357421	952.4990234375	1005.051635742188	-106.3075332641601	748.7225952148438	817.7265625	0.5451025366783558	751.0214233398438	583.5424194335938	24.89840698242193	836.7021484375	683.412353515625	69.65483856201178	813.315673828125	469.0876159667969	87.25044250488288	642.9915161132813	384.8827514648438	20.38684272766119	494.1403198242188	258.0385131835938	58.8181648254395	604.8849487304688	301.9913635253906	97.85400390625006	812.17236328125	820.1580200195313	362.3947143554688	863.2066040039063	587.536376953125	330.5659484863282	903.4521484375	756.7059936523438	282.5300292968751	946.667724609375	534.9290771484375	267.6280822753907	865.383056640625	427.7989807128906	335.4242248535157	881.7168579101563	176.5097808837891	293.6369628906251	924.6087646484375	307.910888671875	252.714324951172	798.063232421875	65.29109954833986	240.6682586669923	1114.487670898438	51.83748626708986	240.1773071289064	1016.387451171875	31.1099376678467	309.9290466308595	962.9321899414063	31.95165634155275	303.2624511718751	339.0641174316406	222.974853515625	110.959945678711	570.654541015625	27.51568412780762	73.34769439697273	484.6874694824219	60.48384475708009	136.5509796142579	466.89501953125	58.56583404541016	22.66171455383306	430.7093200683594	91.72347259521484	37.78655242919926	505.6452026367188	122.2057342529297	84.35026550292973	516.7007446289063	39.4556999206543	129.848373413086	507.5421752929688	43.84881973266602	26.32900047302252	0	0	0	626.3444213867188	1027.717041015625	190.0621490478516	-200	0	-2.449293598294706e-14	-2.449293598294706e-14	1.224646799147353e-14	200	1.499759782661858e-30	200	-1.224646799147353e-14	nan	nan	nan	
84	0.6916666666666668	873.506103515625	1431.814208984375	186.8145294189453	710.7783813476563	1530.832885742188	191.6138305664063	752.3587646484375	1511.976440429688	350.1637268066406	744.53369140625	1526.108276367188	51.89092636108398	908.2305297851563	1272.7529296875	189.8635711669922	630.6077880859375	1311.821044921875	189.8836059570313	829.5120849609375	1011.832824707031	322.5386962890626	828.334716796875	997.5693359375	48.80508422851566	638.965087890625	1033.831909179688	243.5094146728516	632.1997680664063	1022.093383789063	139.3724822998047	647.1177368164063	1130.278198242188	189.6146392822266	666.7127685546875	1183.953979492188	436.6593322753906	731.4541625976561	921.35107421875	467.6666564941407	755.6205444335938	912.87060546875	420.9093933105469	686.7435302734375	911.8792724609375	463.2080993652344	750.4227905273438	1192.702392578125	-82.09259033203124	923.7841796875	994.7794799804688	-143.1609649658203	888.0106811523438	969.05419921875	-127.385887145996	955.438232421875	1001.676696777344	-104.8708343505859	761.8536987304688	817.67822265625	2.043131113052411	769.4376831054688	583.6759643554688	24.72652626037604	852.701904296875	685.539794921875	70.28437805175787	832.793701171875	469.7023620605469	87.09687805175788	660.7591552734375	387.1541137695313	19.96108245849615	509.2457885742188	264.8516845703125	58.57604217529302	623.2649536132813	307.41455078125	98.79828643798834	817.9739990234375	819.8182983398438	363.6636657714844	868.9932861328125	587.1528930664063	331.3098144531251	912.2720336914063	756.18115234375	285.3894958496094	952.7239990234375	534.1111450195313	268.5818481445313	869.9846801757813	427.4537658691406	336.1361083984376	883.200927734375	176.0065612792969	293.6976318359376	928.04931640625	307.4266357421875	253.5418853759766	798.1339721679688	65.42446136474611	240.8242492675782	1114.883422851563	51.1632652282715	240.255569458008	1016.616943359375	31.05306243896486	310.2228088378907	962.7153930664063	31.71984100341799	303.3070068359376	356.2596435546875	238.9515380859375	112.302719116211	574.4805297851563	23.7842082977295	73.24433898925788	492.0897216796875	66.97292327880861	136.3263854980469	473.5070190429688	65.73065948486328	23.28261566162115	438.8616333007813	102.2276763916016	37.98704910278325	515.7684326171875	127.8213806152344	83.89396667480473	522.173828125	42.25261688232423	129.5366973876954	513.45361328125	46.15836715698242	25.95994377136237	0	0	0	635.5824584960938	1027.962646484375	191.4409484863282	-200	0	-2.449293598294706e-14	-2.449293598294706e-14	1.224646799147353e-14	200	1.499759782661858e-30	200	-1.224646799147353e-14	nan	nan	nan	
85	0.7000000000000002	882.332275390625	1432.525634765625	187.6546783447266	719.6226196289063	1531.53369140625	193.1195220947266	761.8377075195313	1512.693115234375	351.4694519042969	752.9976196289063	1526.928466796875	53.10815811157227	917.0390014648438	1273.313598632813	190.5802917480469	639.4444580078125	1312.388427734375	191.3221435546875	838.9481811523438	1013.241638183594	323.7768554687501	837.533935546875	997.7923583984375	50.1259689331055	648.201171875	1034.178344726563	244.9418487548828	641.3809204101563	1022.209411621094	140.6832580566407	656.0413818359375	1130.532348632813	190.5417785644532	678.4697875976563	1184.1298828125	438.2528991699219	745.2183837890624	922.05322265625	469.5402832031251	769.4918212890625	913.80224609375	422.8003845214844	700.9992675781249	912.2457275390625	465.5432739257813	756.3311767578125	1192.760620117188	-79.32475280761716	925.748291015625	991.6356811523438	-141.4566802978515	888.960693359375	967.5617065429688	-125.8608016967773	957.581787109375	997.9524536132813	-103.8070068359374	774.9154052734375	817.7750244140625	3.243678808212325	787.531494140625	584.14892578125	24.77853393554694	868.3291015625	687.14794921875	70.34548950195318	852.56640625	470.6319274902344	87.36532592773445	678.7925415039063	389.5710754394531	19.69733619689947	524.381103515625	271.9193115234375	58.52296066284185	642.2869873046875	313.1139221191406	100.0244598388673	823.6083984375	819.4042358398438	365.0327453613282	874.6127319335938	586.695068359375	332.1538085937501	921.2660522460938	755.5012817382813	288.7106933593751	958.5652465820313	533.156982421875	269.4974670410157	874.0675659179688	427.490234375	337.068817138672	884.7164916992188	175.7674407958985	293.8026123046876	931.0712280273438	307.0816040039063	253.8509368896485	798.19140625	65.58926391601564	240.9561920166016	1115.274536132813	50.44777297973634	240.3164520263673	1016.775451660156	30.86516571044924	310.4888610839845	963.3214721679688	32.46325302124026	303.706268310547	373.8054504394531	254.0816650390625	114.2424545288086	579.7924194335938	21.51751136779786	73.2768859863282	500.673828125	73.11447906494142	136.1653442382813	482.6062927246094	73.74771118164063	23.55260658264166	448.5405883789063	112.1017227172852	37.62364578247075	526.9860229492188	134.0621337890625	84.16633605957037	529.0316162109375	45.08881759643555	129.0768432617188	521.6382446289063	49.60058975219727	25.42153358459479	0	0	0	644.7910766601563	1028.19384765625	192.8125457763672	-200	0	-2.449293598294706e-14	-2.449293598294706e-14	1.224646799147353e-14	200	1.499759782661858e-30	200	-1.224646799147353e-14	nan	nan	nan	
86	0.7083333333333335	891.1626586914063	1433.214233398438	188.4479217529297	728.3130493164063	1532.1396484375	194.531005859375	771.2057495117188	1513.371826171875	352.637939453125	761.3963623046875	1527.693237304688	54.33352279663086	925.8554077148438	1274.01953125	191.1911315917969	648.197998046875	1313.12158203125	192.6101379394531	848.1651000976563	1014.653747558594	325.0446166992188	846.6433715820313	998.08447265625	51.35577392578129	657.2959594726563	1034.5517578125	246.2366790771485	650.5055541992188	1022.409973144531	141.9694976806641	664.8267211914063	1130.842895507813	191.3885803222657	690.1709594726563	1184.271850585938	439.8970031738281	759.2951049804686	922.6697998046875	471.4465942382813	783.2461547851563	914.68701171875	424.8530273437501	715.1882324218749	912.5894775390625	467.5235900878907	762.2649536132813	1192.95751953125	-76.5629959106445	927.38916015625	988.7052612304688	-139.7972564697265	890.4126586914063	965.0582885742188	-123.2521972656249	960.056884765625	994.649169921875	-102.4360198974609	787.365234375	818.760009765625	4.079903125762987	805.2368774414063	584.9800415039063	24.87412643432624	883.7445068359375	689.0452880859375	70.46037292480476	872.134521484375	472.2566223144531	87.63307189941415	697.017822265625	392.1205749511719	19.59820556640631	539.6156005859375	279.0326538085938	58.97418594360357	661.7672119140625	318.9283142089844	101.4428329467774	829.0371704101563	819.05029296875	366.5666198730469	880.0267333984375	586.2971801757813	333.1625976562501	929.6066284179688	754.6063842773438	292.3091430664063	964.239013671875	532.4058227539063	270.7554931640626	879.51953125	427.1295166015625	337.8857727050782	886.3626708984375	175.476318359375	294.1080932617189	934.0559692382813	306.4776306152344	254.3314514160157	798.2999267578125	65.81650543212892	241.1135864257813	1115.481079101563	49.89345169067384	240.470413208008	1016.76708984375	31.1644802093506	311.6292419433595	962.84521484375	31.636531829834	303.5380859375001	392.3743896484375	265.4518127441406	116.9616394042969	589.8345336914063	25.01542091369629	71.67030334472663	512.3280639648438	79.2637176513672	135.7632446289063	494.4072875976563	81.87105560302734	22.57736968994146	460.8248901367188	121.0934829711914	36.53979110717778	539.7180786132813	140.1806945800781	84.29531860351568	540.0908813476563	49.85640716552735	127.8342971801759	532.7936401367188	55.98014831542969	24.25490379333502	0	0	0	653.9007568359375	1028.480834960938	194.1030883789063	-200	0	-2.449293598294706e-14	-2.449293598294706e-14	1.224646799147353e-14	200	1.499759782661858e-30	200	-1.224646799147353e-14	nan	nan	nan	
